<svg width="36" height="34" viewBox="0 0 36 34" fill="none" xmlns="http://www.w3.org/2000/svg">
<g clip-path="url(#clip0)">
<path d="M11.2197 16.6463L18.7197 9.14625C18.9151 8.95092 19.2315 8.95092 19.4267 9.14625C19.6221 9.34158 19.6221 9.65799 19.4267 9.85327L12.7802 16.4998H34.5732C34.8496 16.4998 35.0732 16.7234 35.0732 16.9998C35.0732 17.2762 34.8496 17.4998 34.5732 17.4998H12.7802L19.4267 24.1462C19.6221 24.3416 19.6221 24.658 19.4267 24.8533C19.3291 24.9509 19.2011 24.9997 19.0732 24.9997C18.9453 24.9997 18.8174 24.9509 18.7197 24.8533L11.2197 17.3533C11.0244 17.158 11.0244 16.8416 11.2197 16.6463Z" fill="#EEEEEE"/>
</g>
<path d="M29.0732 6.5C26.1399 3.13008 21.8188 1 17.0002 1C8.16367 1 1.00023 8.16344 1.00023 17C1.00023 25.8366 8.16367 33 17.0002 33C21.8188 33 26.1399 30.8699 29.0732 27.5" stroke="#EEEEEE" stroke-linecap="round"/>
<defs>
<clipPath id="clip0">
<rect width="24" height="24" fill="white" transform="matrix(-1 0 0 1 35.0732 5)"/>
</clipPath>
</defs>
</svg>
