<svg width="35" height="34" viewBox="0 0 35 34" fill="none" xmlns="http://www.w3.org/2000/svg">
<g clip-path="url(#clip0)">
<path d="M23.9268 16.6463L16.4268 9.14625C16.2314 8.95092 15.915 8.95092 15.7197 9.14625C15.5244 9.34158 15.5244 9.65799 15.7197 9.85327L22.3662 16.4998H0.573258C0.296883 16.4998 0.0732422 16.7234 0.0732422 16.9998C0.0732422 17.2762 0.296883 17.4998 0.573258 17.4998H22.3662L15.7197 24.1462C15.5244 24.3416 15.5244 24.658 15.7197 24.8533C15.8174 24.9509 15.9454 24.9997 16.0733 24.9997C16.2012 24.9997 16.3291 24.9509 16.4268 24.8533L23.9268 17.3533C24.1221 17.158 24.1221 16.8416 23.9268 16.6463Z" fill="#EEEEEE"/>
</g>
<path d="M6.07324 6.5C9.00657 3.13008 13.3277 1 18.1463 1C26.9828 1 34.1463 8.16344 34.1463 17C34.1463 25.8366 26.9828 33 18.1463 33C13.3277 33 9.00657 30.8699 6.07324 27.5" stroke="#EEEEEE" stroke-linecap="round"/>
<defs>
<clipPath id="clip0">
<rect width="24" height="24" fill="white" transform="translate(0.0732422 5)"/>
</clipPath>
</defs>
</svg>
