<svg width="200" height="49" viewBox="0 0 200 49" fill="none" xmlns="http://www.w3.org/2000/svg">
<g filter="url(#filter0_b)">
<rect y="0.823242" width="200" height="48" fill="#EEEEEE" fill-opacity="0.6"/>
</g>
<path d="M36.8697 35.8232H50.4983V34.1082H38.6307V25.5788H48.6607V23.8638H38.6307V15.4875H50.4983V13.7725H36.8697V35.8232ZM54.4928 35.8232H66.9729V34.1082H56.2538V13.7725H54.4928V35.8232ZM104.992 35.8232H106.799L112.22 16.927L117.641 35.8232H119.448L125.787 13.7725H123.935L118.544 32.73L113.139 13.7725H111.286L105.896 32.73L100.49 13.7725H98.668L104.992 35.8232ZM136.715 36.2826C138.91 36.2826 140.748 35.7977 142.228 34.8279C143.719 33.8479 144.842 32.4952 145.597 30.7699C146.352 29.0345 146.73 27.0438 146.73 24.7979C146.73 22.5417 146.352 20.551 145.597 18.8258C144.842 17.1005 143.719 15.753 142.228 14.7831C140.748 13.8031 138.91 13.3131 136.715 13.3131C134.521 13.3131 132.678 13.8031 131.187 14.7831C129.697 15.753 128.574 17.1005 127.819 18.8258C127.063 20.551 126.685 22.5417 126.685 24.7979C126.685 27.0438 127.063 29.0345 127.819 30.7699C128.574 32.4952 129.697 33.8479 131.187 34.8279C132.678 35.7977 134.521 36.2826 136.715 36.2826ZM136.715 34.5523C134.908 34.5523 133.398 34.1388 132.183 33.3119C130.968 32.485 130.059 31.3365 129.457 29.8665C128.855 28.3964 128.559 26.7069 128.569 24.7979C128.589 22.8786 128.901 21.1891 129.503 19.7292C130.105 18.2592 131.004 17.1107 132.198 16.2838C133.403 15.4467 134.908 15.0333 136.715 15.0435C138.522 15.0435 140.028 15.4569 141.233 16.2838C142.437 17.1107 143.341 18.2592 143.943 19.7292C144.545 21.1891 144.847 22.8786 144.847 24.7979C144.847 26.7069 144.545 28.3964 143.943 29.8665C143.341 31.3365 142.437 32.485 141.233 33.3119C140.028 34.1388 138.522 34.5523 136.715 34.5523ZM158.608 36.2826C160.803 36.2826 162.641 35.7977 164.121 34.8279C165.611 33.8479 166.734 32.4952 167.49 30.7699C168.245 29.0345 168.623 27.0438 168.623 24.7979C168.623 22.5417 168.245 20.551 167.49 18.8258C166.734 17.1005 165.611 15.753 164.121 14.7831C162.641 13.8031 160.803 13.3131 158.608 13.3131C156.413 13.3131 154.571 13.8031 153.08 14.7831C151.59 15.753 150.467 17.1005 149.711 18.8258C148.956 20.551 148.578 22.5417 148.578 24.7979C148.578 27.0438 148.956 29.0345 149.711 30.7699C150.467 32.4952 151.59 33.8479 153.08 34.8279C154.571 35.7977 156.413 36.2826 158.608 36.2826ZM158.608 34.5523C156.801 34.5523 155.29 34.1388 154.076 33.3119C152.861 32.485 151.952 31.3365 151.35 29.8665C150.748 28.3964 150.451 26.7069 150.462 24.7979C150.482 22.8786 150.793 21.1891 151.396 19.7292C151.998 18.2592 152.896 17.1107 154.091 16.2838C155.296 15.4467 156.801 15.0333 158.608 15.0435C160.415 15.0435 161.921 15.4569 163.126 16.2838C164.33 17.1107 165.234 18.2592 165.836 19.7292C166.438 21.1891 166.739 22.8786 166.739 24.7979C166.739 26.7069 166.438 28.3964 165.836 29.8665C165.234 31.3365 164.33 32.485 163.126 33.3119C161.921 34.1388 160.415 34.5523 158.608 34.5523ZM171.696 35.8232H178.265C178.5 35.8232 178.909 35.8181 179.49 35.8079C180.083 35.7875 180.639 35.7416 181.16 35.6701C182.813 35.4353 184.186 34.8177 185.279 33.8172C186.371 32.8066 187.188 31.5203 187.729 29.9584C188.27 28.3964 188.54 26.6763 188.54 24.7979C188.54 22.9195 188.27 21.1993 187.729 19.6374C187.188 18.0754 186.371 16.7891 185.279 15.7785C184.186 14.7678 182.813 14.1502 181.16 13.9256C180.629 13.8439 180.072 13.798 179.49 13.7878C178.919 13.7776 178.51 13.7725 178.265 13.7725H171.696V35.8232ZM173.549 34.0929V15.5029H178.265C178.694 15.5029 179.159 15.5182 179.659 15.5488C180.169 15.5692 180.598 15.61 180.945 15.6713C182.313 15.9061 183.416 16.4472 184.253 17.2945C185.09 18.1316 185.697 19.1984 186.075 20.4949C186.463 21.7812 186.657 23.2155 186.657 24.7979C186.657 26.37 186.463 27.8043 186.075 29.1008C185.697 30.3871 185.09 31.4539 184.253 32.3012C183.416 33.1384 182.313 33.6794 180.945 33.9244C180.598 33.9857 180.18 34.0316 179.689 34.0622C179.199 34.0827 178.725 34.0929 178.265 34.0929H173.549Z" fill="#3E130C"/>
<path d="M77.1428 13.2241H78.9498L84.3706 32.1204L89.7914 13.2241H91.5983L97.9379 35.2749H96.085L90.6948 16.3174L85.2893 35.2749H83.4365L78.0463 16.3174L72.6408 35.2749H70.8185L77.1428 13.2241Z" fill="#3E130C"/>
<path fill-rule="evenodd" clip-rule="evenodd" d="M9 13.1919H31.6633V35.8552H9V13.1919ZM12.3689 21.4609L28.2944 17.3264V21.1547L12.3689 25.4423V21.4609ZM28.2944 23.911L12.3689 28.0455V32.0269L28.2944 27.7393V23.911Z" fill="#3E130C"/>
<defs>
<filter id="filter0_b" x="-5" y="-4.17676" width="210" height="58" filterUnits="userSpaceOnUse" color-interpolation-filters="sRGB">
<feFlood flood-opacity="0" result="BackgroundImageFix"/>
<feGaussianBlur in="BackgroundImage" stdDeviation="2.5"/>
<feComposite in2="SourceAlpha" operator="in" result="effect1_backgroundBlur"/>
<feBlend mode="normal" in="SourceGraphic" in2="effect1_backgroundBlur" result="shape"/>
</filter>
</defs>
</svg>
