<svg width="24" height="25" viewBox="0 0 24 25" fill="none" xmlns="http://www.w3.org/2000/svg">
<path d="M21.8068 17.0642L19.4512 14.7086C19.089 14.3458 17.7719 13.291 16.0937 14.9703L15.443 15.621C15.0844 15.6016 13.7998 15.3394 11.3374 12.8765C8.86667 10.4057 8.79077 9.31321 8.81171 9.07555L9.50531 8.38196C9.80997 8.07782 10.2329 7.60356 10.3942 7.00104C10.5245 6.51527 10.5208 5.77822 9.76704 5.02443L7.41143 2.66882C6.70579 1.96318 5.54998 1.43605 4.0539 2.93055L1.17482 5.80963C1.06751 5.91642 1.01202 6.06456 1.02249 6.21532C1.03296 6.37236 1.35961 10.1377 7.71818 16.4957C14.0637 22.8417 18.0609 23.428 18.2279 23.45C18.2509 23.4526 18.2734 23.4542 18.2959 23.4542C18.4341 23.4542 18.5676 23.3998 18.666 23.3008L21.5451 20.4217C23.2244 18.743 22.1696 17.4275 21.8068 17.0642ZM20.8049 19.6816L18.1263 22.3601C17.1998 22.1267 13.6501 20.9473 8.45837 15.7555C3.27498 10.5727 2.28196 7.21776 2.10398 6.36084L4.79409 3.67074C5.68241 2.78293 6.18651 2.92532 6.67125 3.409L9.02686 5.76461C9.46186 6.19961 9.4383 6.52416 9.38334 6.73041C9.3111 7.00052 9.10904 7.29785 8.76512 7.64177L7.97992 8.42697C7.95322 8.45367 7.92914 8.48351 7.90873 8.51544C7.68835 8.86093 7.23083 10.2502 10.5973 13.6166C13.9852 17.0051 15.5608 16.7145 15.8419 16.6229C15.9199 16.5973 15.9911 16.5538 16.0492 16.4957L16.8344 15.7105C17.2563 15.2891 17.6426 15.0766 17.9991 15.0949C18.2462 15.1038 18.4859 15.2232 18.7116 15.4488L21.0672 17.8044C21.61 18.3478 21.5247 18.9623 20.8049 19.6816Z" fill="#3AD1A9"/>
</svg>
